<?xml version="1.0" ?><svg enable-background="new 0 0 595.3 841.9" id="Layer_1" version="1.1" viewBox="0 0 595.3 841.9" xml:space="preserve" xmlns="http://www.w3.org/2000/svg" xmlns:xlink="http://www.w3.org/1999/xlink"><path d="M530.6,404.9c-10.9,69.1-32,89.3-69.4,135.7c-37.4,39.3-91.3,105-167.6,101.3c-69.1-10.9-89.3-32-135.7-69.4  c-39.3-37.4-105-91.3-101.3-167.6c10.9-69.1,32-89.3,69.4-135.7c37.4-39.3,91.3-105,167.6-101.3c69.1,10.9,89.3,32,135.7,69.4  C468.6,274.8,534.2,328.6,530.6,404.9z" fill="#3765AF"/><g><path d="M297.2,365.9c-42.9,0-77.7,34.8-77.7,77.7s34.8,77.7,77.7,77.7s77.7-34.8,77.7-77.7   S340.1,365.9,297.2,365.9z M364.7,441.1h-30.1c-0.3-11.1-2.3-21.7-5.8-31.4c6.8-2.8,13-6.6,18.7-11   C357.8,410.1,364.1,424.9,364.7,441.1z M294.4,511.2c-8.3-6.9-15.3-15.9-20.4-26.4c6.6-2.1,13.5-3.2,20.7-3.4v29.8   C294.6,511.2,294.5,511.2,294.4,511.2z M299.9,376.1c9.5,7.9,17.2,18.4,22.4,30.7c-7.1,2.4-14.7,3.9-22.6,4.1v-34.8   C299.8,376.1,299.8,376.1,299.9,376.1z M308.3,376.9c13.8,2.3,26.2,8.8,35.9,18.1c-5.2,4-11,7.4-17.2,10   C322.4,394.3,316,384.7,308.3,376.9z M294.7,376.1v34.8c-7.9-0.3-15.5-1.7-22.6-4.1c5.2-12.3,12.9-22.8,22.4-30.7   C294.5,376.1,294.6,376.1,294.7,376.1z M267.3,405.1c-6.2-2.6-11.9-6-17.2-10c9.7-9.4,22.1-15.8,35.9-18.1   C278.3,384.7,271.9,394.3,267.3,405.1z M270.1,411.4c7.7,2.7,16,4.2,24.5,4.5v25.2h-30C265,430.6,266.8,420.6,270.1,411.4z    M294.7,446.1v30.2c-7.9,0.2-15.5,1.5-22.8,3.9c-4.3-10.3-6.9-21.9-7.2-34.1H294.7z M286.1,510.3c-12.4-2.1-23.7-7.5-32.8-15.3   c4.9-3.4,10.3-6.3,16-8.5C273.6,495.6,279.3,503.6,286.1,510.3z M299.7,511.2v-29.8c7.2,0.2,14.1,1.4,20.7,3.4   c-5.1,10.5-12.1,19.5-20.4,26.4C299.9,511.2,299.8,511.2,299.7,511.2z M325.1,486.5c5.7,2.2,11,5.1,16,8.5   c-9.2,7.8-20.4,13.2-32.8,15.3C315,503.6,320.7,495.6,325.1,486.5z M322.4,480.2c-7.2-2.3-14.9-3.6-22.8-3.9v-30.2h30   C329.3,458.3,326.8,469.9,322.4,480.2z M299.7,441.1v-25.2c8.6-0.3,16.8-1.8,24.5-4.5c3.3,9.2,5.2,19.2,5.4,29.7L299.7,441.1   L299.7,441.1z M246.7,398.7c5.7,4.4,12,8.2,18.7,11c-3.5,9.7-5.5,20.3-5.8,31.4h-30.1C230.2,424.9,236.6,410.1,246.7,398.7z    M229.6,446.1h30.1c0.3,12.8,3,24.9,7.5,35.8c-6.4,2.5-12.3,5.8-17.7,9.7C237.7,479.9,230.3,463.9,229.6,446.1z M344.9,491.6   c-5.5-3.9-11.4-7.2-17.7-9.7c4.6-10.9,7.2-23,7.5-35.8h30.1C364.1,463.9,356.6,479.9,344.9,491.6z" fill="#FFFFFF" id="world"/><circle cx="332.5" cy="444.2" fill="#FFFFFF" r="13.5"/><circle cx="268.7" cy="408.1" fill="#FFFFFF" r="13.5"/><path d="M414.2,446.4h-41.1c-0.7,0-1.3-0.6-1.3-1.3v-1.8c0-0.7,0.6-1.3,1.3-1.3h41.1c0.7,0,1.3,0.6,1.3,1.3v1.8   C415.5,445.8,414.9,446.4,414.2,446.4z" fill="#FFFFFF"/><path d="M451.7,464.8h-37c-1.2,0-2.2-1-2.2-2.2v-37c0-1.2,1-2.2,2.2-2.2h37c1.2,0,2.2,1,2.2,2.2v37   C453.9,463.9,452.9,464.8,451.7,464.8z" fill="#FFFFFF"/><path d="M222.6,446.9H165c-0.7,0-1.3-0.6-1.3-1.3v-1.8c0-0.7,0.6-1.3,1.3-1.3h57.6c0.7,0,1.3,0.6,1.3,1.3v1.8   C223.9,446.3,223.3,446.9,222.6,446.9z" fill="#FFFFFF"/><path d="M295.2,316.2v57.6c0,0.7,0.6,1.3,1.3,1.3h1.8c0.7,0,1.3-0.6,1.3-1.3v-57.6c0-0.7-0.6-1.3-1.3-1.3h-1.8   C295.8,314.9,295.2,315.5,295.2,316.2z" fill="#FFFFFF"/><path d="M243.5,396.4L199,368.8c-0.6-0.4-0.8-1.2-0.4-1.8l0.9-1.5c0.4-0.6,1.2-0.8,1.8-0.4l44.5,27.6   c0.6,0.4,0.8,1.2,0.4,1.8l-0.9,1.5C244.9,396.6,244.1,396.7,243.5,396.4z" fill="#FFFFFF"/><path d="M172.3,465.3h-37c-1.2,0-2.2-1-2.2-2.2v-37c0-1.2,1-2.2,2.2-2.2h37c1.2,0,2.2,1,2.2,2.2v37   C174.5,464.4,173.5,465.3,172.3,465.3z" fill="#FFFFFF"/><path d="M206.2,373h-37c-1.2,0-2.2-1-2.2-2.2v-37c0-1.2,1-2.2,2.2-2.2h37c1.2,0,2.2,1,2.2,2.2v37   C208.3,372,207.4,373,206.2,373z" fill="#FFFFFF"/><path d="M315.9,329.8h-37c-1.2,0-2.2-1-2.2-2.2v-37c0-1.2,1-2.2,2.2-2.2h37c1.2,0,2.2,1,2.2,2.2v37   C318.1,328.8,317.1,329.8,315.9,329.8z" fill="#FFFFFF"/><path d="M410.4,373.4h-37c-1.2,0-2.2-1-2.2-2.2v-37c0-1.2,1-2.2,2.2-2.2h37c1.2,0,2.2,1,2.2,2.2v37   C412.6,372.4,411.6,373.4,410.4,373.4z" fill="#FFFFFF"/><path d="M352.5,393.6L382,364c0.5-0.5,0.5-1.4,0-1.9l-1.2-1.2c-0.5-0.5-1.4-0.5-1.9,0l-29.5,29.6   c-0.5,0.5-0.5,1.4,0,1.9l1.2,1.2C351.1,394.1,351.9,394.1,352.5,393.6z" fill="#FFFFFF"/></g></svg>